<svg width="52" height="44" viewBox="0 0 52 44" fill="none" xmlns="http://www.w3.org/2000/svg">
<rect x="1" y="1" width="50" height="42" rx="15" stroke="white" stroke-opacity="0.8" stroke-width="2"/>
<path d="M29.7566 33.52C27.0686 33.52 24.8819 33.1466 23.1966 32.4C21.5113 31.6533 20.2526 30.4586 19.4206 28.816C18.5886 27.152 18.1726 24.9653 18.1726 22.256C18.1726 19.4826 18.5779 17.232 19.3886 15.504C20.2206 13.776 21.4686 12.5066 23.1326 11.696C24.7966 10.8853 26.9193 10.48 29.5006 10.48C32.0819 10.48 34.1619 10.8106 35.7406 11.472C37.3193 12.1333 38.4819 13.0933 39.2286 14.352C39.9753 15.5893 40.4233 17.1253 40.5726 18.96H35.2286C35.1006 17.2746 34.5886 16.0586 33.6926 15.312C32.7966 14.5653 31.4419 14.192 29.6286 14.192C28.1993 14.192 27.0473 14.4373 26.1726 14.928C25.3193 15.4186 24.6793 16.24 24.2526 17.392C23.8259 18.5226 23.6126 20.1013 23.6126 22.128C23.6126 24.112 23.8153 25.6586 24.2206 26.768C24.6473 27.8773 25.2979 28.6773 26.1726 29.168C27.0473 29.6373 28.2099 29.872 29.6606 29.872C30.9406 29.872 31.9753 29.7013 32.7646 29.36C33.5753 29.0186 34.1833 28.496 34.5886 27.792C35.0153 27.0666 35.2606 26.128 35.3246 24.976H40.7006C40.4873 27.024 39.9433 28.6773 39.0686 29.936C38.2153 31.1946 37.0206 32.112 35.4846 32.688C33.9699 33.2426 32.0606 33.52 29.7566 33.52Z" fill="white"/>
<path d="M11.2993 10.832H16.6113V33.232H11.2993V10.832Z" fill="white"/>
</svg>
