<svg width="16" height="16" viewBox="0 0 16 16" fill="none" xmlns="http://www.w3.org/2000/svg">
<path fill-rule="evenodd" clip-rule="evenodd" d="M2.04663 3.33332C2.04663 2.9909 2.32421 2.71332 2.66663 2.71332H13.3333C13.6757 2.71332 13.9533 2.9909 13.9533 3.33332C13.9533 3.67573 13.6757 3.95332 13.3333 3.95332H2.66663C2.32421 3.95332 2.04663 3.67573 2.04663 3.33332Z" fill="#8A84A6"/>
<path fill-rule="evenodd" clip-rule="evenodd" d="M2.04663 8C2.04663 7.65759 2.32421 7.38 2.66663 7.38H13.3333C13.6757 7.38 13.9533 7.65759 13.9533 8C13.9533 8.34242 13.6757 8.62 13.3333 8.62H2.66663C2.32421 8.62 2.04663 8.34242 2.04663 8Z" fill="#8A84A6"/>
<path fill-rule="evenodd" clip-rule="evenodd" d="M2.04663 12.6667C2.04663 12.3243 2.32421 12.0467 2.66663 12.0467H13.3333C13.6757 12.0467 13.9533 12.3243 13.9533 12.6667C13.9533 13.0091 13.6757 13.2867 13.3333 13.2867H2.66663C2.32421 13.2867 2.04663 13.0091 2.04663 12.6667Z" fill="#8A84A6"/>
</svg>
